<svg xmlns="http://www.w3.org/2000/svg" viewBox="0 0 145.6 111"><path fill="#282928" d="M140.6,0H5C2.3,0,0,2.3,0,5v80c0,2.8,2.3,5,5,5h8.8v-6.9H6.9V6.9h131.8v76.3h-13.9v6.9h15.8c2.8,0,5-2.3,5-5V5C145.6,2.3,143.3,0,140.6,0z"/><path fill="#282928" d="M83.2,90.1H104v-6.9H48.5v6.9h12.6c0,0-5.7,18.8-5.7,19.4c0,0.8,0.6,1.5,1.4,1.5h31.9c0.8,0,1.4-0.7,1.4-1.5C90.1,109,83.2,90.1,83.2,90.1z M72.8,88.7c-1.1,0-2-0.9-2-2c0-1.1,0.9-2,2-2s2,0.9,2,2C74.8,87.8,73.9,88.7,72.8,88.7z"/><path fill="#282928" d="M119.7,79.4h-10.5c-1.9,0-3.4,1.5-3.4,3.4v24.9c0,1.9,1.5,3.4,3.4,3.4h10.5c1.9,0,3.4-1.5,3.4-3.4V82.8C123.1,80.9,121.6,79.4,119.7,79.4z M112.5,81h4c0.2,0,0.3,0.1,0.3,0.3c0,0.2-0.1,0.3-0.3,0.3h-4c-0.2,0-0.3-0.1-0.3-0.3C112.2,81.2,112.3,81,112.5,81z M114.5,110.2c-0.6,0-1-0.5-1-1c0-0.6,0.5-1,1-1s1,0.5,1,1C115.5,109.8,115,110.2,114.5,110.2zM122.3,107.5h-15.5V83.2h15.5V107.5z"/><path fill="#282928" d="M42.2,68.8H20.1c-2.5,0-4.5,2-4.5,4.5v33.2c0,2.5,2,4.5,4.5,4.5h22.1c2.5,0,4.5-2,4.5-4.5V73.3C46.7,70.8,44.7,68.8,42.2,68.8z M31.1,110.2c-0.5,0-0.9-0.4-0.9-0.9c0-0.5,0.4-0.9,0.9-0.9s0.9,0.4,0.9,0.9C32,109.8,31.6,110.2,31.1,110.2z M43.7,107.5H18.6V71.8h25.1V107.5z"/></svg>