<svg xmlns="http://www.w3.org/2000/svg" viewBox="0 0 155 111"><path fill="#282928" d="M67.2,41v3.9l-22.4,18V63l22.4,17.4v4.1L39,62.8L67.2,41z"/><path fill="#282928" d="M118,62.8L89.8,84.5v-4.1L112.3,63v-0.2l-22.4-18V41L118,62.8z"/><polygon fill="#282928" points="74.6,84.3 70.6,84.3 82.4,40.9 86.4,40.9"/><path fill="#282928" d="M150,0H5C2.2,0,0,2.2,0,5v101c0,2.8,2.2,5,5,5h145c2.8,0,5-2.2,5-5V5C155,2.2,152.8,0,150,0z M34,6.5c2.1,0,3.8,1.7,3.8,3.8c0,2.1-1.7,3.8-3.8,3.8s-3.8-1.7-3.8-3.8C30.2,8.2,31.9,6.5,34,6.5z M24,6.5c2.1,0,3.8,1.7,3.8,3.8c0,2.1-1.7,3.8-3.8,3.8s-3.8-1.7-3.8-3.8C20.2,8.2,21.9,6.5,24,6.5z M14,6.5c2.1,0,3.8,1.7,3.8,3.8c0,2.1-1.7,3.8-3.8,3.8s-3.8-1.7-3.8-3.8C10.2,8.2,11.9,6.5,14,6.5z M145,101H10V20h135V101z"/></svg>